<svg width="299" height="205" viewBox="0 0 299 205" fill="none" xmlns="http://www.w3.org/2000/svg">
<path opacity="0.2" d="M256.42 85.2676C242.76 90.9376 213.94 103.818 181.38 121.288L55.4202 123.648L45.3002 130.508L139.46 139.508C131.25 143.998 94.6002 169.688 94.6002 169.688L48.6002 168.938C48.2102 168.928 47.8302 169.008 47.4802 169.168C45.2202 170.188 45.5201 173.498 47.9301 174.088L77.3002 181.378C76.3702 182.658 76.0302 183.928 76.4502 185.238C76.9602 186.828 80.7501 187.078 86.6501 186.358L102.98 195.568C104.55 196.458 106.45 196.538 108.1 195.788C110.32 194.778 111.64 192.478 111.39 190.058L110.49 181.338L190.01 152.368L231.33 202.248C233.12 204.408 236.27 204.838 238.58 203.238C240.28 202.048 241.16 199.998 240.83 197.948C238.7 184.748 231 136.838 230.53 132.578C230.44 131.748 230.3 131.068 230.13 130.498C241.15 124.468 250.27 119.188 255.23 115.938C266.39 108.628 284.02 97.3776 281.25 90.2176C278.01 81.8576 266.34 81.1476 256.42 85.2676Z" fill="url(#paint0_linear)"/>
<path d="M4.51013 122.687L0.530118 124.727C-0.259882 125.127 -0.139859 126.287 0.710141 126.527L50.3201 140.487L80.7101 122.477L10.9701 121.187C8.72012 121.147 6.51013 121.667 4.51013 122.687Z" fill="url(#paint1_linear)"/>
<path d="M51.0201 140.048L1.41012 126.088C0.680123 125.888 0.500131 125.008 0.950131 124.508L0.530118 124.718C-0.259882 125.118 -0.139859 126.278 0.710141 126.518L50.3201 140.478L80.7101 122.468H80.6701L51.0201 140.048Z" fill="url(#paint2_radial)"/>
<path d="M61.3501 133.507L61.5701 133.817L80.7001 122.477L10.9601 121.187C8.72014 121.147 6.50012 121.657 4.50012 122.677L0.330139 124.817L61.3501 133.507Z" fill="url(#paint3_linear)"/>
<path d="M89.1901 74.0076C89.1901 74.0076 83.1101 79.8576 83.7901 80.5376C84.4701 81.2176 95.9501 75.3576 95.9501 75.3576L89.1901 74.0076Z" fill="url(#paint4_linear)"/>
<path d="M190.49 103.367C190.49 103.367 184.41 109.217 185.09 109.897C185.77 110.577 197.25 104.717 197.25 104.717L190.49 103.367Z" fill="url(#paint5_linear)"/>
<path d="M196.18 110.328C196.18 110.328 190.1 116.178 190.78 116.858C191.46 117.538 202.94 111.678 202.94 111.678L196.18 110.328Z" fill="url(#paint6_linear)"/>
<path d="M209.38 125.708C209.38 125.708 203.3 131.558 203.98 132.238C204.66 132.918 216.14 127.058 216.14 127.058L209.38 125.708Z" fill="url(#paint7_linear)"/>
<path d="M215.76 133.958C215.76 133.958 209.68 139.808 210.36 140.488C211.04 141.168 222.52 135.308 222.52 135.308L215.76 133.958Z" fill="url(#paint8_linear)"/>
<path d="M120.85 78.7375C120.85 78.7375 114.77 84.5875 115.45 85.2675C116.13 85.9475 127.61 80.0876 127.61 80.0876L120.85 78.7375Z" fill="url(#paint9_linear)"/>
<path d="M68.1001 71.1575C68.1001 71.1575 62.0201 77.0075 62.7001 77.6875C63.3801 78.3675 74.8601 72.5075 74.8601 72.5075L68.1001 71.1575Z" fill="url(#paint10_linear)"/>
<path d="M8.80012 63.3274L13.5501 59.6774C15.6501 58.0674 18.2001 57.1674 20.8501 57.1074L196.63 53.3674L148.01 84.4274L9.96012 67.5874C7.84012 67.3274 7.10012 64.6274 8.80012 63.3274Z" fill="url(#paint11_linear)"/>
<path d="M148.27 83.6474L10.2202 66.7974C8.77015 66.6174 8.00017 65.3074 8.17017 64.0774C7.41017 65.4574 8.19017 67.3674 9.96017 67.5774L148.01 84.4274L196.63 53.3674L195.63 53.3874L148.27 83.6474Z" fill="url(#paint12_radial)"/>
<path d="M172.25 68.9474L196.63 53.3674L20.8501 57.1074C18.2101 57.1674 15.6501 58.0574 13.5501 59.6774L10.1801 62.2674L172.25 68.9474Z" fill="url(#paint13_linear)"/>
<path d="M131.89 82.9375L131.41 82.3675L140.49 74.7475L8.77014 63.7075L8.83014 62.9575L141.46 74.0675C141.61 74.0775 141.74 74.1875 141.79 74.3275C141.84 74.4675 141.79 74.6275 141.67 74.7275L131.89 82.9375Z" fill="#D1D3D4"/>
<path d="M61.8701 124.658C61.8701 124.658 100.89 98.8475 108.99 93.7475C117.09 88.6475 254.25 3.10754 267.46 0.707538C280.67 -1.69246 280.37 2.80754 286.37 2.50754C292.37 2.20754 299.51 4.65754 298.95 11.4875C298.26 20.0375 283.76 33.2275 265.66 46.3175C246.89 59.8975 181.16 100.178 145.61 116.248C105.09 134.558 45.4801 152.408 43.0801 143.998C41.2801 137.698 50.4701 132.158 61.8701 124.658Z" fill="url(#paint14_linear)"/>
<path d="M61.8701 124.658C61.8701 124.658 100.89 98.8475 108.99 93.7475C117.09 88.6475 254.25 3.10754 267.46 0.707538C280.67 -1.69246 280.37 2.80754 286.37 2.50754C292.37 2.20754 299.51 4.65754 298.95 11.4875C298.26 20.0375 283.76 33.2275 265.66 46.3175C246.89 59.8975 181.16 100.178 145.61 116.248C105.09 134.558 45.4801 152.408 43.0801 143.998C41.2801 137.698 50.4701 132.158 61.8701 124.658Z" fill="url(#paint15_radial)"/>
<path d="M61.8701 124.658C61.8701 124.658 100.89 98.8475 108.99 93.7475C117.09 88.6475 254.25 3.10754 267.46 0.707538C280.67 -1.69246 280.37 2.80754 286.37 2.50754C292.37 2.20754 299.51 4.65754 298.95 11.4875C298.26 20.0375 283.76 33.2275 265.66 46.3175C246.89 59.8975 181.16 100.178 145.61 116.248C105.09 134.558 45.4801 152.408 43.0801 143.998C41.2801 137.698 50.4701 132.158 61.8701 124.658Z" fill="url(#paint16_linear)"/>
<path d="M154.31 111.228C154.31 111.228 177.99 106.778 211.59 85.0976C244.85 63.6376 245.03 57.6476 245.03 57.6476C245.03 57.6476 237.7 55.4776 207.62 76.0076C182.29 93.3076 154.31 111.228 154.31 111.228Z" fill="url(#paint17_linear)"/>
<path d="M154.31 111.228C154.31 111.228 177.99 106.778 211.59 85.0976C244.85 63.6376 245.03 57.6476 245.03 57.6476C245.03 57.6476 237.7 55.4776 207.62 76.0076C182.29 93.3076 154.31 111.228 154.31 111.228Z" fill="url(#paint18_linear)"/>
<path d="M186.77 99.0975C185.86 97.8275 186.12 96.0675 187.36 95.1075C195.54 88.7875 223.82 66.9975 227.47 65.0775C231.75 62.8275 234.22 62.8275 234.9 69.8075C235.49 75.9375 245.47 146.187 247.88 163.157C248.2 165.437 247.29 167.707 245.49 169.127L243.25 170.897C241.4 172.357 238.71 171.967 237.34 170.057L186.77 99.0975Z" fill="url(#paint19_linear)"/>
<path d="M245.66 168.077L243.42 169.847C241.57 171.307 238.88 170.917 237.51 169.007L186.95 98.0475C186.6 97.5475 186.42 96.9775 186.41 96.4075C186.09 97.2775 186.19 98.2875 186.77 99.0975L237.33 170.057C238.7 171.977 241.39 172.357 243.24 170.897L245.48 169.127C246.89 168.017 247.74 166.387 247.9 164.647C247.56 165.977 246.78 167.187 245.66 168.077Z" fill="url(#paint20_radial)"/>
<path d="M55.7801 126.438C57.0901 128.298 59.5201 128.968 61.5901 128.038C66.5301 125.828 75.4302 121.718 80.7502 118.588C88.4002 114.088 94.1002 108.798 94.1002 108.798C94.1002 108.798 87.4802 109.828 83.1002 109.318C75.5802 108.458 50.2901 95.6175 44.1801 92.7275C43.5301 92.4175 42.7902 92.4275 42.1402 92.7275L37.1801 95.0775C35.8401 95.7175 35.3902 97.4075 36.2502 98.6175L55.7801 126.438Z" fill="url(#paint21_linear)"/>
<path d="M56.5901 127.947C57.6501 129.457 59.6301 130.007 61.3201 129.257C66.0801 127.127 75.5801 122.787 81.1501 119.507C88.8001 115.007 94.5001 109.717 94.5001 109.717C94.5001 109.717 87.8801 110.747 83.5001 110.237C75.9801 109.377 50.6901 96.5375 44.5801 93.6475C43.9301 93.3375 43.1901 93.3475 42.5401 93.6475L37.5801 95.9975C36.2401 96.6375 35.7901 98.3275 36.6501 99.5375L56.5901 127.947Z" fill="url(#paint22_linear)"/>
<path d="M84.5302 129.458L86.7802 154.238C86.9102 155.728 86.1402 157.138 84.8102 157.828L80.6602 159.958C79.7102 160.448 78.5702 160.398 77.6702 159.818L51.6702 143.188C51.6702 143.188 60.0002 138.008 69.2302 133.958C78.4502 129.908 84.5302 129.458 84.5302 129.458Z" fill="url(#paint23_linear)"/>
<path d="M248.57 98.8275C247.66 98.2975 245.9 98.0375 242.84 99.8575C240.65 101.168 237.45 104.198 237.44 104.198C237.34 104.258 237.3 104.308 237.28 104.348C236.83 104.698 236.55 105.308 236.55 106.158C236.55 108.068 237.9 110.398 239.56 111.358C240.36 111.818 241.09 111.878 241.63 111.598C241.68 111.588 241.73 111.568 241.81 111.528C241.82 111.518 246.3 110.348 248.33 109.018C251.32 107.068 251.91 105.638 251.91 104.598C251.92 102.478 250.42 99.8975 248.57 98.8275Z" fill="url(#paint24_linear)"/>
<path d="M248.57 98.8275C247.66 98.2975 245.9 98.0375 242.84 99.8575C240.65 101.168 237.45 104.198 237.44 104.198C237.34 104.258 237.3 104.308 237.28 104.348C236.83 104.698 236.55 105.308 236.55 106.158C236.55 108.068 237.9 110.398 239.56 111.358C240.36 111.818 241.09 111.878 241.63 111.598C241.68 111.588 241.73 111.568 241.81 111.528C241.82 111.518 246.3 110.348 248.33 109.018C251.32 107.068 251.91 105.638 251.91 104.598C251.92 102.478 250.42 99.8975 248.57 98.8275Z" fill="url(#paint25_radial)"/>
<path d="M236.55 106.868L246.62 100.278L234.58 101.628L236.55 106.868Z" fill="url(#paint26_linear)"/>
<path d="M236.84 107.158L246.92 100.578L234.87 101.928L236.84 107.158Z" fill="url(#paint27_linear)"/>
<path d="M251.59 127.638C250.68 127.108 248.92 126.848 245.86 128.668C243.67 129.978 240.47 133.008 240.46 133.008C240.36 133.068 240.32 133.118 240.3 133.158C239.85 133.508 239.57 134.118 239.57 134.968C239.57 136.878 240.92 139.208 242.58 140.168C243.38 140.628 244.11 140.688 244.65 140.408C244.7 140.398 244.75 140.378 244.83 140.338C244.84 140.328 249.32 139.158 251.35 137.828C254.34 135.878 254.93 134.448 254.93 133.408C254.94 131.298 253.44 128.708 251.59 127.638Z" fill="url(#paint28_linear)"/>
<path d="M251.59 127.638C250.68 127.108 248.92 126.848 245.86 128.668C243.67 129.978 240.47 133.008 240.46 133.008C240.36 133.068 240.32 133.118 240.3 133.158C239.85 133.508 239.57 134.118 239.57 134.968C239.57 136.878 240.92 139.208 242.58 140.168C243.38 140.628 244.11 140.688 244.65 140.408C244.7 140.398 244.75 140.378 244.83 140.338C244.84 140.328 249.32 139.158 251.35 137.828C254.34 135.878 254.93 134.448 254.93 133.408C254.94 131.298 253.44 128.708 251.59 127.638Z" fill="url(#paint29_radial)"/>
<path d="M239.56 135.678L249.63 129.098L237.59 130.448L239.56 135.678Z" fill="url(#paint30_linear)"/>
<path d="M239.86 135.978L249.93 129.388L237.89 130.738L239.86 135.978Z" fill="url(#paint31_linear)"/>
<path d="M243.47 170.717L245.48 169.127C247.28 167.707 248.2 165.437 247.87 163.157C245.46 146.197 235.48 75.9375 234.89 69.8075C234.21 62.8275 231.74 62.8275 227.46 65.0775C225.34 66.1975 214.92 74.0075 204.95 81.5975L243.47 170.717Z" fill="url(#paint32_linear)"/>
<path d="M80.5201 160.027L84.8101 157.818C86.1401 157.138 86.9201 155.718 86.7801 154.228L84.5301 129.448C84.5301 129.448 78.4501 129.898 69.2201 133.948C67.2801 134.798 65.3801 135.708 63.5801 136.598L80.5201 160.027Z" fill="url(#paint33_linear)"/>
<path d="M114.5 127.318C114.16 127.318 113.79 127.048 113.79 126.468V121.688C113.79 121.148 114.11 120.558 114.53 120.318L116.58 119.138C117.05 118.868 117.69 119.058 117.69 119.878V124.648C117.69 125.188 117.37 125.778 116.95 126.018L114.9 127.198C114.78 127.278 114.64 127.318 114.5 127.318ZM116.92 119.738L114.91 120.968C114.74 121.068 114.55 121.398 114.55 121.688V126.468C114.55 126.498 114.55 126.518 114.55 126.538L116.58 125.368C116.75 125.268 116.94 124.938 116.94 124.648V119.878C116.94 119.788 116.93 119.748 116.92 119.738Z" fill="#25054D"/>
<path d="M120.28 122.348L119.26 122.938C119.11 123.028 118.99 122.928 118.99 122.728V120.358C118.99 120.158 119.11 119.928 119.26 119.838L120.28 119.248C120.43 119.158 120.55 119.258 120.55 119.458V121.828C120.55 122.028 120.43 122.258 120.28 122.348Z" fill="#25054D"/>
<path d="M123.38 120.798L122.36 121.388C122.21 121.478 122.09 121.378 122.09 121.178V118.808C122.09 118.608 122.21 118.378 122.36 118.288L123.38 117.698C123.53 117.608 123.65 117.708 123.65 117.908V120.278C123.66 120.478 123.53 120.708 123.38 120.798Z" fill="#25054D"/>
<path d="M126.49 119.248L125.47 119.838C125.32 119.928 125.2 119.828 125.2 119.628V117.258C125.2 117.058 125.32 116.828 125.47 116.738L126.49 116.148C126.64 116.058 126.76 116.158 126.76 116.358V118.728C126.76 118.928 126.64 119.158 126.49 119.248Z" fill="#25054D"/>
<path d="M129.6 117.687L128.58 118.277C128.43 118.367 128.31 118.267 128.31 118.067V115.697C128.31 115.497 128.43 115.267 128.58 115.177L129.6 114.587C129.75 114.497 129.87 114.597 129.87 114.797V117.167C129.87 117.377 129.75 117.607 129.6 117.687Z" fill="#25054D"/>
<path d="M132.71 116.138L131.69 116.728C131.54 116.818 131.42 116.718 131.42 116.518V114.148C131.42 113.948 131.54 113.718 131.69 113.628L132.71 113.038C132.86 112.948 132.98 113.048 132.98 113.248V115.618C132.98 115.818 132.86 116.058 132.71 116.138Z" fill="#25054D"/>
<path d="M135.81 114.588L134.79 115.178C134.64 115.268 134.52 115.168 134.52 114.968V112.598C134.52 112.398 134.64 112.168 134.79 112.078L135.81 111.488C135.96 111.398 136.08 111.498 136.08 111.698V114.068C136.08 114.268 135.96 114.498 135.81 114.588Z" fill="#25054D"/>
<path d="M138.92 113.038L137.9 113.628C137.75 113.718 137.63 113.618 137.63 113.418V111.048C137.63 110.848 137.75 110.618 137.9 110.528L138.92 109.938C139.07 109.848 139.19 109.948 139.19 110.148V112.518C139.19 112.718 139.07 112.948 138.92 113.038Z" fill="#25054D"/>
<path d="M142.03 111.488L141.01 112.078C140.86 112.168 140.74 112.068 140.74 111.868V109.498C140.74 109.298 140.86 109.068 141.01 108.978L142.03 108.388C142.18 108.298 142.3 108.398 142.3 108.598V110.968C142.3 111.168 142.18 111.398 142.03 111.488Z" fill="#25054D"/>
<path d="M145.12 109.918L144.1 110.508C143.95 110.598 143.83 110.498 143.83 110.298V107.928C143.83 107.728 143.95 107.498 144.1 107.408L145.12 106.818C145.27 106.728 145.39 106.828 145.39 107.028V109.398C145.4 109.598 145.27 109.828 145.12 109.918Z" fill="#25054D"/>
<path d="M148.19 108.278L147.17 108.868C147.02 108.958 146.9 108.858 146.9 108.658V106.288C146.9 106.088 147.02 105.858 147.17 105.768L148.19 105.178C148.34 105.088 148.46 105.188 148.46 105.388V107.758C148.46 107.958 148.34 108.198 148.19 108.278Z" fill="#25054D"/>
<path d="M151.25 106.648L150.23 107.238C150.08 107.328 149.96 107.228 149.96 107.028V104.658C149.96 104.458 150.08 104.228 150.23 104.138L151.25 103.548C151.4 103.458 151.52 103.558 151.52 103.758V106.128C151.52 106.328 151.4 106.558 151.25 106.648Z" fill="#25054D"/>
<path d="M154.31 105.008L153.29 105.598C153.14 105.688 153.02 105.588 153.02 105.388V103.018C153.02 102.818 153.14 102.588 153.29 102.498L154.31 101.908C154.46 101.818 154.58 101.918 154.58 102.118V104.488C154.59 104.688 154.47 104.918 154.31 105.008Z" fill="#25054D"/>
<path d="M157.38 103.378L156.36 103.968C156.21 104.058 156.09 103.958 156.09 103.758V101.388C156.09 101.188 156.21 100.958 156.36 100.868L157.38 100.278C157.53 100.188 157.65 100.288 157.65 100.488V102.858C157.65 103.058 157.53 103.288 157.38 103.378Z" fill="#25054D"/>
<path d="M160.44 101.738L159.42 102.328C159.27 102.418 159.15 102.318 159.15 102.118V99.7475C159.15 99.5475 159.27 99.3175 159.42 99.2275L160.44 98.6375C160.59 98.5475 160.71 98.6475 160.71 98.8475V101.218C160.71 101.418 160.59 101.648 160.44 101.738Z" fill="#25054D"/>
<path d="M163.48 100.058L162.46 100.648C162.31 100.738 162.19 100.638 162.19 100.438V98.0676C162.19 97.8676 162.31 97.6376 162.46 97.5476L163.48 96.9576C163.63 96.8676 163.75 96.9676 163.75 97.1676V99.5376C163.76 99.7376 163.63 99.9776 163.48 100.058Z" fill="#25054D"/>
<path d="M166.49 98.3276L165.47 98.9176C165.32 99.0076 165.2 98.9076 165.2 98.7076V96.3376C165.2 96.1376 165.32 95.9076 165.47 95.8176L166.49 95.2276C166.64 95.1376 166.76 95.2376 166.76 95.4376V97.8076C166.76 98.0076 166.64 98.2376 166.49 98.3276Z" fill="#25054D"/>
<path d="M169.5 96.5976L168.48 97.1876C168.33 97.2776 168.21 97.1776 168.21 96.9776V94.6076C168.21 94.4076 168.33 94.1776 168.48 94.0876L169.5 93.4976C169.65 93.4076 169.77 93.5076 169.77 93.7076V96.0776C169.77 96.2776 169.65 96.5076 169.5 96.5976Z" fill="#25054D"/>
<path d="M172.51 94.8577L171.49 95.4477C171.34 95.5377 171.22 95.4376 171.22 95.2376V92.8677C171.22 92.6677 171.34 92.4376 171.49 92.3476L172.51 91.7576C172.66 91.6676 172.78 91.7676 172.78 91.9676V94.3377C172.78 94.5477 172.66 94.7777 172.51 94.8577Z" fill="#25054D"/>
<path d="M175.52 93.1277L174.5 93.7177C174.35 93.8077 174.23 93.7077 174.23 93.5077V91.1377C174.23 90.9377 174.35 90.7077 174.5 90.6177L175.52 90.0277C175.67 89.9377 175.79 90.0377 175.79 90.2377V92.6077C175.79 92.8077 175.67 93.0477 175.52 93.1277Z" fill="#25054D"/>
<path d="M178.44 93.7375C178.1 93.7375 177.73 93.4675 177.73 92.8775V88.1075C177.73 87.5675 178.05 86.9775 178.47 86.7375L180.52 85.5575C180.99 85.2875 181.63 85.4775 181.63 86.2975V91.0675C181.63 91.6075 181.31 92.1975 180.89 92.4375L178.84 93.6175C178.71 93.6975 178.57 93.7375 178.44 93.7375ZM180.85 86.1575L178.84 87.3875C178.67 87.4875 178.48 87.8175 178.48 88.1075V92.8775C178.48 92.9075 178.48 92.9275 178.48 92.9475L180.51 91.7775C180.68 91.6775 180.87 91.3475 180.87 91.0575V86.2875C180.88 86.2075 180.86 86.1675 180.85 86.1575Z" fill="#25054D"/>
<path d="M184.55 87.9277L183.53 88.5177C183.38 88.6077 183.26 88.5077 183.26 88.3077V85.9377C183.26 85.7377 183.38 85.5077 183.53 85.4177L184.55 84.8277C184.7 84.7377 184.82 84.8377 184.82 85.0377V87.4077C184.82 87.6077 184.7 87.8477 184.55 87.9277Z" fill="#25054D"/>
<path d="M187.49 86.0876L186.47 86.6776C186.32 86.7676 186.2 86.6676 186.2 86.4676V84.0976C186.2 83.8976 186.32 83.6676 186.47 83.5776L187.49 82.9876C187.64 82.8976 187.76 82.9976 187.76 83.1976V85.5676C187.77 85.7676 187.64 85.9976 187.49 86.0876Z" fill="#25054D"/>
<path d="M190.44 84.2475L189.42 84.8375C189.27 84.9275 189.15 84.8275 189.15 84.6275V82.2575C189.15 82.0575 189.27 81.8275 189.42 81.7375L190.44 81.1475C190.59 81.0575 190.71 81.1575 190.71 81.3575V83.7275C190.71 83.9275 190.59 84.1575 190.44 84.2475Z" fill="#25054D"/>
<path d="M193.38 82.4077L192.36 82.9977C192.21 83.0877 192.09 82.9877 192.09 82.7877V80.4177C192.09 80.2177 192.21 79.9877 192.36 79.8977L193.38 79.3077C193.53 79.2177 193.65 79.3177 193.65 79.5177V81.8877C193.65 82.0877 193.53 82.3177 193.38 82.4077Z" fill="#25054D"/>
<path d="M196.33 80.5576L195.31 81.1476C195.16 81.2376 195.04 81.1376 195.04 80.9376V78.5676C195.04 78.3676 195.16 78.1376 195.31 78.0476L196.33 77.4576C196.48 77.3676 196.6 77.4676 196.6 77.6676V80.0376C196.6 80.2376 196.48 80.4776 196.33 80.5576Z" fill="#25054D"/>
<path d="M199.27 78.7175L198.25 79.3075C198.1 79.3975 197.98 79.2975 197.98 79.0975V76.7275C197.98 76.5275 198.1 76.2975 198.25 76.2075L199.27 75.6175C199.42 75.5275 199.54 75.6275 199.54 75.8275V78.1975C199.54 78.3975 199.42 78.6275 199.27 78.7175Z" fill="#25054D"/>
<path d="M202.21 76.8777L201.19 77.4677C201.04 77.5577 200.92 77.4577 200.92 77.2577V74.8877C200.92 74.6877 201.04 74.4577 201.19 74.3677L202.21 73.7777C202.36 73.6877 202.48 73.7877 202.48 73.9877V76.3577C202.49 76.5577 202.36 76.7877 202.21 76.8777Z" fill="#25054D"/>
<path d="M205.16 75.0376L204.14 75.6276C203.99 75.7176 203.87 75.6176 203.87 75.4176V73.0476C203.87 72.8476 203.99 72.6176 204.14 72.5276L205.16 71.9376C205.31 71.8476 205.43 71.9476 205.43 72.1476V74.5176C205.43 74.7176 205.31 74.9476 205.16 75.0376Z" fill="#25054D"/>
<path d="M208.1 73.1875L207.08 73.7775C206.93 73.8675 206.81 73.7675 206.81 73.5675V71.1975C206.81 70.9975 206.93 70.7675 207.08 70.6775L208.1 70.0875C208.25 69.9975 208.37 70.0975 208.37 70.2975V72.6675C208.37 72.8675 208.25 73.1075 208.1 73.1875Z" fill="#25054D"/>
<path d="M211.05 71.3476L210.03 71.9376C209.88 72.0276 209.76 71.9276 209.76 71.7276V69.3576C209.76 69.1576 209.88 68.9276 210.03 68.8376L211.05 68.2476C211.2 68.1576 211.32 68.2576 211.32 68.4576V70.8276C211.32 71.0276 211.2 71.2576 211.05 71.3476Z" fill="#25054D"/>
<path d="M213.99 69.5076L212.97 70.0976C212.82 70.1876 212.7 70.0876 212.7 69.8876V67.5176C212.7 67.3176 212.82 67.0876 212.97 66.9976L213.99 66.4075C214.14 66.3175 214.26 66.4176 214.26 66.6176V68.9876C214.26 69.1876 214.14 69.4176 213.99 69.5076Z" fill="#25054D"/>
<path d="M216.93 67.6677L215.91 68.2577C215.76 68.3477 215.64 68.2477 215.64 68.0477V65.6777C215.64 65.4777 215.76 65.2477 215.91 65.1577L216.93 64.5677C217.08 64.4777 217.2 64.5777 217.2 64.7777V67.1477C217.21 67.3477 217.08 67.5777 216.93 67.6677Z" fill="#25054D"/>
<path d="M219.88 65.8176L218.86 66.4076C218.71 66.4976 218.59 66.3976 218.59 66.1976V63.8276C218.59 63.6276 218.71 63.3976 218.86 63.3076L219.88 62.7176C220.03 62.6276 220.15 62.7276 220.15 62.9276V65.2976C220.15 65.4976 220.03 65.7376 219.88 65.8176Z" fill="#25054D"/>
<path d="M222.82 63.9775L221.8 64.5675C221.65 64.6575 221.53 64.5575 221.53 64.3575V61.9875C221.53 61.7875 221.65 61.5575 221.8 61.4675L222.82 60.8775C222.97 60.7875 223.09 60.8875 223.09 61.0875V63.4575C223.09 63.6575 222.97 63.8975 222.82 63.9775Z" fill="#25054D"/>
<path d="M225.77 62.1377L224.75 62.7277C224.6 62.8177 224.48 62.7177 224.48 62.5177V60.1477C224.48 59.9477 224.6 59.7177 224.75 59.6277L225.77 59.0377C225.92 58.9477 226.04 59.0477 226.04 59.2477V61.6177C226.04 61.8177 225.92 62.0477 225.77 62.1377Z" fill="#25054D"/>
<path d="M228.71 60.2976L227.69 60.8876C227.54 60.9776 227.42 60.8776 227.42 60.6776V58.3076C227.42 58.1076 227.54 57.8776 227.69 57.7876L228.71 57.1976C228.86 57.1076 228.98 57.2076 228.98 57.4076V59.7776C228.98 59.9776 228.86 60.2076 228.71 60.2976Z" fill="#25054D"/>
<path d="M231.65 58.4575L230.63 59.0475C230.48 59.1375 230.36 59.0375 230.36 58.8375V56.4675C230.36 56.2675 230.48 56.0375 230.63 55.9475L231.65 55.3575C231.8 55.2675 231.92 55.3675 231.92 55.5675V57.9375C231.93 58.1375 231.8 58.3675 231.65 58.4575Z" fill="#25054D"/>
<path d="M234.38 58.8977C234.04 58.8977 233.67 58.6277 233.67 58.0377V53.2677C233.67 52.7277 233.99 52.1377 234.41 51.8977L236.46 50.7177C236.93 50.4477 237.57 50.6377 237.57 51.4577V56.2277C237.57 56.7677 237.25 57.3577 236.83 57.5977L234.78 58.7777C234.65 58.8577 234.51 58.8977 234.38 58.8977ZM236.79 51.3177L234.78 52.5477C234.61 52.6477 234.42 52.9777 234.42 53.2677V58.0377C234.42 58.0677 234.42 58.0877 234.42 58.1077L236.45 56.9377C236.62 56.8377 236.81 56.5077 236.81 56.2177V51.4477C236.82 51.3677 236.8 51.3277 236.79 51.3177Z" fill="#25054D"/>
<path d="M240.49 52.9277L239.47 53.5177C239.32 53.6077 239.2 53.5077 239.2 53.3077V50.9377C239.2 50.7377 239.32 50.5077 239.47 50.4177L240.49 49.8277C240.64 49.7377 240.76 49.8377 240.76 50.0377V52.4077C240.76 52.6077 240.64 52.8377 240.49 52.9277Z" fill="#25054D"/>
<path d="M243.43 51.0876L242.41 51.6776C242.26 51.7676 242.14 51.6676 242.14 51.4676V49.0976C242.14 48.8976 242.26 48.6676 242.41 48.5776L243.43 47.9876C243.58 47.8976 243.7 47.9976 243.7 48.1976V50.5676C243.7 50.7676 243.58 50.9976 243.43 51.0876Z" fill="#25054D"/>
<path d="M246.37 49.2375L245.35 49.8275C245.2 49.9175 245.08 49.8175 245.08 49.6175V47.2475C245.08 47.0475 245.2 46.8175 245.35 46.7275L246.37 46.1375C246.52 46.0475 246.64 46.1475 246.64 46.3475V48.7175C246.65 48.9175 246.52 49.1575 246.37 49.2375Z" fill="#25054D"/>
<path d="M249.32 47.3977L248.3 47.9877C248.15 48.0777 248.03 47.9777 248.03 47.7777V45.4077C248.03 45.2077 248.15 44.9777 248.3 44.8877L249.32 44.2977C249.47 44.2077 249.59 44.3077 249.59 44.5077V46.8777C249.59 47.0777 249.47 47.3077 249.32 47.3977Z" fill="#25054D"/>
<path d="M252.26 45.5576L251.24 46.1476C251.09 46.2376 250.97 46.1376 250.97 45.9376V43.5676C250.97 43.3676 251.09 43.1376 251.24 43.0476L252.26 42.4576C252.41 42.3676 252.53 42.4676 252.53 42.6676V45.0376C252.53 45.2376 252.41 45.4676 252.26 45.5576Z" fill="#25054D"/>
<path d="M255.17 43.6577L254.15 44.2477C254 44.3377 253.88 44.2377 253.88 44.0377V41.6677C253.88 41.4677 254 41.2377 254.15 41.1477L255.17 40.5577C255.32 40.4677 255.44 40.5677 255.44 40.7677V43.1377C255.44 43.3377 255.32 43.5677 255.17 43.6577Z" fill="#25054D"/>
<path d="M257.98 41.6277L256.96 42.2177C256.81 42.3077 256.69 42.2077 256.69 42.0077V39.6377C256.69 39.4377 256.81 39.2077 256.96 39.1177L257.98 38.5277C258.13 38.4377 258.25 38.5377 258.25 38.7377V41.1077C258.26 41.3077 258.13 41.5377 257.98 41.6277Z" fill="#25054D"/>
<path d="M260.8 39.5976L259.78 40.1876C259.63 40.2776 259.51 40.1776 259.51 39.9776V37.6076C259.51 37.4076 259.63 37.1776 259.78 37.0876L260.8 36.4976C260.95 36.4076 261.07 36.5076 261.07 36.7076V39.0776C261.07 39.2776 260.95 39.5076 260.8 39.5976Z" fill="#25054D"/>
<path d="M263.62 37.5676L262.6 38.1576C262.45 38.2476 262.33 38.1476 262.33 37.9476V35.5776C262.33 35.3776 262.45 35.1476 262.6 35.0576L263.62 34.4676C263.77 34.3776 263.89 34.4776 263.89 34.6776V37.0476C263.89 37.2476 263.77 37.4776 263.62 37.5676Z" fill="#25054D"/>
<path d="M266.44 35.5376L265.42 36.1276C265.27 36.2176 265.15 36.1176 265.15 35.9176V33.5476C265.15 33.3476 265.27 33.1176 265.42 33.0276L266.44 32.4376C266.59 32.3476 266.71 32.4476 266.71 32.6476V35.0176C266.71 35.2176 266.59 35.4476 266.44 35.5376Z" fill="#25054D"/>
<path d="M269.25 33.5076L268.23 34.0976C268.08 34.1876 267.96 34.0876 267.96 33.8876V31.5176C267.96 31.3176 268.08 31.0876 268.23 30.9976L269.25 30.4075C269.4 30.3175 269.52 30.4176 269.52 30.6176V32.9876C269.53 33.1876 269.4 33.4176 269.25 33.5076Z" fill="#25054D"/>
<path d="M272.07 31.4775L271.05 32.0675C270.9 32.1575 270.78 32.0575 270.78 31.8575V29.4875C270.78 29.2875 270.9 29.0575 271.05 28.9675L272.07 28.3775C272.22 28.2875 272.34 28.3875 272.34 28.5875V30.9575C272.34 31.1575 272.22 31.3875 272.07 31.4775Z" fill="#25054D"/>
<path d="M274.89 29.4375L273.87 30.0275C273.72 30.1175 273.6 30.0175 273.6 29.8175V27.4475C273.6 27.2475 273.72 27.0175 273.87 26.9275L274.89 26.3375C275.04 26.2475 275.16 26.3475 275.16 26.5475V28.9175C275.16 29.1175 275.04 29.3575 274.89 29.4375Z" fill="#25054D"/>
<path d="M277.46 29.3276C277.12 29.3276 276.75 29.0576 276.75 28.4676V23.6976C276.75 23.1576 277.07 22.5676 277.49 22.3276L279.54 21.1476C280.01 20.8776 280.65 21.0676 280.65 21.8876V26.6576C280.65 27.1976 280.33 27.7876 279.91 28.0276L277.86 29.2076C277.74 29.2876 277.6 29.3276 277.46 29.3276ZM279.88 21.7476L277.87 22.9776C277.7 23.0776 277.51 23.4076 277.51 23.6976V28.4676C277.51 28.4976 277.51 28.5176 277.51 28.5376L279.54 27.3676C279.71 27.2676 279.9 26.9376 279.9 26.6476V21.8776C279.9 21.7976 279.89 21.7476 279.88 21.7476Z" fill="#25054D"/>
<path d="M280.59 3.55759C280.36 5.50759 279.54 6.55759 279.54 6.55759L281.12 10.0076C281.12 10.0076 284.68 7.18759 284.57 3.70759C284.55 3.19759 284.38 2.75759 284.11 2.36759C282.18 2.01759 280.86 1.11759 278.68 0.527588C279.61 1.26759 280.72 2.39759 280.59 3.55759Z" fill="url(#paint34_linear)"/>
<path d="M241.12 171.588L199.79 94.1477L189.13 101.128L188.72 100.498L199.72 93.2977C199.81 93.2377 199.92 93.2177 200.02 93.2477C200.12 93.2777 200.21 93.3377 200.26 93.4377L241.78 171.238L241.12 171.588Z" fill="#D1D3D4"/>
<path d="M85.2101 117.097C85.1601 117.087 79.5801 116.437 72.5801 113.067C61.8101 107.877 44.1601 95.8675 43.9801 95.7475L44.4001 95.1274C44.5801 95.2474 62.1801 107.217 72.9101 112.387C79.7801 115.697 85.2401 116.337 85.3001 116.347L85.2101 117.097Z" fill="#D1D3D4"/>
<path d="M61.1901 128.808L38.0101 98.4176C37.9401 98.3276 37.9201 98.2076 37.9401 98.0976C37.9701 97.9876 38.0401 97.8976 38.1401 97.8476L41.0201 96.4676C41.1701 96.3976 41.3401 96.4276 41.4501 96.5476L68.4301 125.298L67.8801 125.808L41.0901 97.2576L38.8701 98.3176L61.7701 128.338L61.1901 128.808Z" fill="#D1D3D4"/>
<path d="M46.8102 144.658C46.8102 146.008 45.8502 146.558 44.6702 145.878C43.4902 145.198 42.5302 143.548 42.5302 142.188C42.5302 140.838 43.4902 140.288 44.6702 140.968C45.8602 141.658 46.8102 143.308 46.8102 144.658Z" fill="url(#paint35_linear)"/>
<path d="M46.0302 144.457C46.0302 145.447 45.3302 145.847 44.4702 145.347C43.6102 144.847 42.9102 143.637 42.9102 142.647C42.9102 141.657 43.6102 141.257 44.4702 141.757C45.3302 142.257 46.0302 143.467 46.0302 144.457Z" fill="#939598"/>
<path d="M272.86 6.52743C276.03 11.7474 245.22 36.2074 204.06 61.1474C162.89 86.0874 126.96 102.077 123.79 96.8474C120.62 91.6274 151.43 67.1674 192.59 42.2274C233.76 17.2874 269.7 1.30744 272.86 6.52743Z" fill="url(#paint36_radial)"/>
<path opacity="0.5" d="M160.39 97.1175C161.49 99.5075 142.29 110.697 117.51 122.097C92.7301 133.497 71.7401 140.807 70.6401 138.417C69.5401 136.027 88.7401 124.837 113.52 113.437C138.3 102.027 159.29 94.7275 160.39 97.1175Z" fill="url(#paint37_radial)"/>
<path opacity="0.5" d="M298.57 13.5676C300.02 15.7676 282.72 29.7176 259.94 44.7276C237.16 59.7376 217.52 70.1276 216.07 67.9276C214.62 65.7276 231.92 51.7776 254.7 36.7676C277.48 21.7576 297.12 11.3676 298.57 13.5676Z" fill="url(#paint38_radial)"/>
<path opacity="0.5" d="M244.88 163.268C242.28 163.678 236.74 142.158 232.5 115.208C228.27 88.2576 226.94 66.0776 229.54 65.6676C232.14 65.2576 237.68 86.7776 241.92 113.728C246.16 140.678 247.48 162.858 244.88 163.268Z" fill="url(#paint39_radial)"/>
<path opacity="0.2" d="M84.5302 129.458L63.5402 150.778L51.6702 143.188C51.6702 143.188 60.0002 138.008 69.2302 133.958C78.4502 129.908 84.5302 129.458 84.5302 129.458Z" fill="black"/>
<path d="M86.7802 154.238L84.5302 129.458H84.5202L86.6902 153.368C86.8202 154.858 86.0502 156.268 84.7202 156.958L80.5702 159.088C79.6202 159.578 78.4802 159.528 77.5802 158.948L52.3202 142.798C51.9102 143.048 51.6702 143.198 51.6702 143.198L77.6801 159.828C78.5801 160.408 79.7202 160.458 80.6702 159.968L84.8202 157.838C86.1402 157.138 86.9202 155.718 86.7802 154.238Z" fill="url(#paint40_radial)"/>
<path opacity="0.2" d="M226.78 65.6075C223.19 67.4975 195.36 88.9375 187.31 95.1575C186.09 96.0975 185.84 97.8275 186.73 99.0775L188.08 100.967L229.64 64.4275C228.8 64.6275 227.84 65.0375 226.78 65.6075Z" fill="black"/>
<defs>
<linearGradient id="paint0_linear" x1="171.043" y1="229.483" x2="161.546" y2="102.405" gradientUnits="userSpaceOnUse">
<stop stop-color="white"/>
<stop offset="1"/>
</linearGradient>
<linearGradient id="paint1_linear" x1="34.7214" y1="153.08" x2="40.2225" y2="124.657" gradientUnits="userSpaceOnUse">
<stop offset="0.0101" stop-color="white"/>
<stop offset="0.1479" stop-color="#F9F5FB"/>
<stop offset="0.3792" stop-color="#E9DBF2"/>
<stop offset="0.6566" stop-color="#D1B4E3"/>
<stop offset="0.6664" stop-color="#CFB2E2"/>
<stop offset="0.7902" stop-color="#BE9AD6"/>
<stop offset="0.9046" stop-color="#B48BCF"/>
<stop offset="1" stop-color="#B086CC"/>
</linearGradient>
<radialGradient id="paint2_radial" cx="0" cy="0" r="1" gradientUnits="userSpaceOnUse" gradientTransform="translate(40.3528 131.482) scale(29.2354)">
<stop stop-color="white"/>
<stop offset="1"/>
</radialGradient>
<linearGradient id="paint3_linear" x1="40.4124" y1="132.767" x2="40.6083" y2="116.393" gradientUnits="userSpaceOnUse">
<stop offset="0.0354" stop-color="#9F19AB"/>
<stop offset="0.1727" stop-color="#A21CAC"/>
<stop offset="0.2906" stop-color="#AD24B0"/>
<stop offset="0.4013" stop-color="#BF31B7"/>
<stop offset="0.5076" stop-color="#D845C0"/>
<stop offset="0.6099" stop-color="#F75DCB"/>
<stop offset="0.6313" stop-color="#FF63CE"/>
<stop offset="0.8737" stop-color="#DC48C1"/>
</linearGradient>
<linearGradient id="paint4_linear" x1="83.7306" y1="77.2964" x2="95.9381" y2="77.2964" gradientUnits="userSpaceOnUse">
<stop stop-color="#B086CC"/>
<stop offset="1" stop-color="#8969C3"/>
</linearGradient>
<linearGradient id="paint5_linear" x1="185.04" y1="106.657" x2="197.247" y2="106.657" gradientUnits="userSpaceOnUse">
<stop stop-color="#B086CC"/>
<stop offset="1" stop-color="#8969C3"/>
</linearGradient>
<linearGradient id="paint6_linear" x1="190.724" y1="113.614" x2="202.932" y2="113.614" gradientUnits="userSpaceOnUse">
<stop stop-color="#B086CC"/>
<stop offset="1" stop-color="#8969C3"/>
</linearGradient>
<linearGradient id="paint7_linear" x1="203.93" y1="128.996" x2="216.137" y2="128.996" gradientUnits="userSpaceOnUse">
<stop stop-color="#B086CC"/>
<stop offset="1" stop-color="#8969C3"/>
</linearGradient>
<linearGradient id="paint8_linear" x1="210.307" y1="137.249" x2="222.515" y2="137.249" gradientUnits="userSpaceOnUse">
<stop stop-color="#B086CC"/>
<stop offset="1" stop-color="#8969C3"/>
</linearGradient>
<linearGradient id="paint9_linear" x1="115.399" y1="82.0272" x2="127.607" y2="82.0272" gradientUnits="userSpaceOnUse">
<stop stop-color="#B086CC"/>
<stop offset="1" stop-color="#8969C3"/>
</linearGradient>
<linearGradient id="paint10_linear" x1="62.6455" y1="74.4477" x2="74.853" y2="74.4477" gradientUnits="userSpaceOnUse">
<stop stop-color="#B086CC"/>
<stop offset="1" stop-color="#8969C3"/>
</linearGradient>
<linearGradient id="paint11_linear" x1="94.7909" y1="107.912" x2="102.3" y2="58.8384" gradientUnits="userSpaceOnUse">
<stop offset="0.0101" stop-color="white"/>
<stop offset="0.1479" stop-color="#F9F5FB"/>
<stop offset="0.3792" stop-color="#E9DBF2"/>
<stop offset="0.6566" stop-color="#D1B4E3"/>
<stop offset="0.6664" stop-color="#CFB2E2"/>
<stop offset="0.7902" stop-color="#BE9AD6"/>
<stop offset="0.9046" stop-color="#B48BCF"/>
<stop offset="1" stop-color="#B086CC"/>
</linearGradient>
<radialGradient id="paint12_radial" cx="0" cy="0" r="1" gradientUnits="userSpaceOnUse" gradientTransform="translate(71.606 63.4044) scale(47.9022)">
<stop stop-color="white"/>
<stop offset="1"/>
</radialGradient>
<linearGradient id="paint13_linear" x1="103.812" y1="72.1458" x2="103.113" y2="47.6963" gradientUnits="userSpaceOnUse">
<stop offset="0.0354" stop-color="#9F19AB"/>
<stop offset="0.1727" stop-color="#A21CAC"/>
<stop offset="0.2906" stop-color="#AD24B0"/>
<stop offset="0.4013" stop-color="#BF31B7"/>
<stop offset="0.5076" stop-color="#D845C0"/>
<stop offset="0.6099" stop-color="#F75DCB"/>
<stop offset="0.6313" stop-color="#FF63CE"/>
<stop offset="0.8737" stop-color="#DC48C1"/>
</linearGradient>
<linearGradient id="paint14_linear" x1="161.542" y1="60.4691" x2="183.994" y2="98.1894" gradientUnits="userSpaceOnUse">
<stop offset="0.0101" stop-color="#C1A1D5"/>
<stop offset="0.0488" stop-color="#C8ABDA"/>
<stop offset="0.1149" stop-color="#DAC6E6"/>
<stop offset="0.1998" stop-color="#F7F2F9"/>
<stop offset="0.2222" stop-color="white"/>
<stop offset="0.2513" stop-color="#F9F5FB"/>
<stop offset="0.3001" stop-color="#E9DBF2"/>
<stop offset="0.3586" stop-color="#D1B4E3"/>
<stop offset="0.4264" stop-color="#B395D6"/>
<stop offset="0.4949" stop-color="#9C7DCB"/>
<stop offset="0.5583" stop-color="#8E6EC5"/>
<stop offset="0.6111" stop-color="#8969C3"/>
<stop offset="0.8354" stop-color="#9471C5"/>
<stop offset="1" stop-color="#9F79C8"/>
</linearGradient>
<radialGradient id="paint15_radial" cx="0" cy="0" r="1" gradientUnits="userSpaceOnUse" gradientTransform="translate(120.622 -16.6957) scale(176.014)">
<stop offset="0.2222" stop-color="white"/>
<stop offset="0.5731" stop-color="#FEFDFE"/>
<stop offset="0.7112" stop-color="#FAF6FC"/>
<stop offset="0.8118" stop-color="#F2EAF7"/>
<stop offset="0.8942" stop-color="#E7D9F1"/>
<stop offset="0.9646" stop-color="#DAC2E8"/>
<stop offset="1" stop-color="#D1B4E3"/>
</radialGradient>
<linearGradient id="paint16_linear" x1="162.449" y1="62.6472" x2="183.405" y2="96.1779" gradientUnits="userSpaceOnUse">
<stop offset="0.2222" stop-color="white"/>
<stop offset="0.5401" stop-color="#FEFDFE"/>
<stop offset="0.6651" stop-color="#F9F6FB"/>
<stop offset="0.7563" stop-color="#F1EAF5"/>
<stop offset="0.8309" stop-color="#E5D9ED"/>
<stop offset="0.8954" stop-color="#D6C2E3"/>
<stop offset="0.9521" stop-color="#C4A7D7"/>
<stop offset="1" stop-color="#B089C9"/>
</linearGradient>
<linearGradient id="paint17_linear" x1="184.449" y1="60.8405" x2="203.599" y2="90.5324" gradientUnits="userSpaceOnUse">
<stop offset="0.1212" stop-color="#E8CFF7"/>
<stop offset="0.5808" stop-color="#B086CC"/>
<stop offset="0.8937" stop-color="#9471C5"/>
<stop offset="1" stop-color="#8969C3"/>
</linearGradient>
<linearGradient id="paint18_linear" x1="194.306" y1="74.071" x2="202.165" y2="89.2646" gradientUnits="userSpaceOnUse">
<stop offset="0.101" stop-color="#FFFEFF"/>
<stop offset="0.299" stop-color="#FDFBFD"/>
<stop offset="0.4613" stop-color="#F6F1F9"/>
<stop offset="0.6109" stop-color="#EADFF1"/>
<stop offset="0.753" stop-color="#DAC7E6"/>
<stop offset="0.8884" stop-color="#C5A8D8"/>
<stop offset="1" stop-color="#B089C9"/>
</linearGradient>
<linearGradient id="paint19_linear" x1="183.61" y1="154.183" x2="238.447" y2="115.762" gradientUnits="userSpaceOnUse">
<stop offset="0.0101" stop-color="white"/>
<stop offset="0.1479" stop-color="#F9F5FB"/>
<stop offset="0.3792" stop-color="#E9DBF2"/>
<stop offset="0.6566" stop-color="#D1B4E3"/>
<stop offset="0.6664" stop-color="#CFB2E2"/>
<stop offset="0.7902" stop-color="#BE9AD6"/>
<stop offset="0.9046" stop-color="#B48BCF"/>
<stop offset="1" stop-color="#B086CC"/>
</linearGradient>
<radialGradient id="paint20_radial" cx="0" cy="0" r="1" gradientUnits="userSpaceOnUse" gradientTransform="translate(220.737 141.429) scale(34.4322)">
<stop stop-color="white"/>
<stop offset="1"/>
</radialGradient>
<linearGradient id="paint21_linear" x1="67.0595" y1="89.8132" x2="62.0267" y2="121.142" gradientUnits="userSpaceOnUse">
<stop offset="0.0101" stop-color="white"/>
<stop offset="0.1479" stop-color="#F9F5FB"/>
<stop offset="0.3792" stop-color="#E9DBF2"/>
<stop offset="0.6566" stop-color="#D1B4E3"/>
<stop offset="0.6664" stop-color="#CFB2E2"/>
<stop offset="0.7902" stop-color="#BE9AD6"/>
<stop offset="0.9046" stop-color="#B48BCF"/>
<stop offset="1" stop-color="#B086CC"/>
</linearGradient>
<linearGradient id="paint22_linear" x1="6.85831" y1="114.118" x2="90.1609" y2="109.272" gradientUnits="userSpaceOnUse">
<stop stop-color="#E2D1EE"/>
<stop offset="0.0558" stop-color="#DFCCEC"/>
<stop offset="0.2889" stop-color="#D5BAE5"/>
<stop offset="0.4596" stop-color="#D1B4E3"/>
<stop offset="0.5411" stop-color="#C8A6DD"/>
<stop offset="0.7113" stop-color="#B88ED4"/>
<stop offset="0.8687" stop-color="#AE7FCE"/>
<stop offset="1" stop-color="#AB7ACC"/>
</linearGradient>
<linearGradient id="paint23_linear" x1="48.7167" y1="163.929" x2="79.2348" y2="142.973" gradientUnits="userSpaceOnUse">
<stop offset="0.0101" stop-color="white"/>
<stop offset="0.1479" stop-color="#F9F5FB"/>
<stop offset="0.3792" stop-color="#E9DBF2"/>
<stop offset="0.6566" stop-color="#D1B4E3"/>
<stop offset="0.6664" stop-color="#CFB2E2"/>
<stop offset="0.7902" stop-color="#BE9AD6"/>
<stop offset="0.9046" stop-color="#B48BCF"/>
<stop offset="1" stop-color="#B086CC"/>
</linearGradient>
<linearGradient id="paint24_linear" x1="241.091" y1="100.181" x2="247.312" y2="110.266" gradientUnits="userSpaceOnUse">
<stop offset="0.0101" stop-color="#C1A1D5"/>
<stop offset="0.0488" stop-color="#C8ABDA"/>
<stop offset="0.1149" stop-color="#DAC6E6"/>
<stop offset="0.1998" stop-color="#F7F2F9"/>
<stop offset="0.2222" stop-color="white"/>
<stop offset="0.2513" stop-color="#F9F5FB"/>
<stop offset="0.3001" stop-color="#E9DBF2"/>
<stop offset="0.3586" stop-color="#D1B4E3"/>
<stop offset="0.4264" stop-color="#B395D6"/>
<stop offset="0.4949" stop-color="#9C7DCB"/>
<stop offset="0.5583" stop-color="#8E6EC5"/>
<stop offset="0.6111" stop-color="#8969C3"/>
<stop offset="0.755" stop-color="#9471C6"/>
<stop offset="1" stop-color="#B086CC"/>
</linearGradient>
<radialGradient id="paint25_radial" cx="0" cy="0" r="1" gradientUnits="userSpaceOnUse" gradientTransform="translate(239.354 98.0641) scale(12.8292)">
<stop offset="0.2222" stop-color="white"/>
<stop offset="0.5401" stop-color="#FEFDFE"/>
<stop offset="0.6651" stop-color="#F9F6FB"/>
<stop offset="0.7563" stop-color="#F1EAF5"/>
<stop offset="0.8309" stop-color="#E5D9ED"/>
<stop offset="0.8954" stop-color="#D6C2E3"/>
<stop offset="0.9521" stop-color="#C4A7D7"/>
<stop offset="1" stop-color="#B089C9"/>
</radialGradient>
<linearGradient id="paint26_linear" x1="241.654" y1="95.1716" x2="239.231" y2="108.466" gradientUnits="userSpaceOnUse">
<stop offset="0.0101" stop-color="white"/>
<stop offset="0.1479" stop-color="#F9F5FB"/>
<stop offset="0.3792" stop-color="#E9DBF2"/>
<stop offset="0.6566" stop-color="#D1B4E3"/>
<stop offset="0.6664" stop-color="#CFB2E2"/>
<stop offset="0.7902" stop-color="#BE9AD6"/>
<stop offset="0.9046" stop-color="#B48BCF"/>
<stop offset="1" stop-color="#B086CC"/>
</linearGradient>
<linearGradient id="paint27_linear" x1="242.333" y1="93.3615" x2="239.91" y2="106.656" gradientUnits="userSpaceOnUse">
<stop stop-color="#E2D1EE"/>
<stop offset="0.0558" stop-color="#DFCCEC"/>
<stop offset="0.2889" stop-color="#D5BAE5"/>
<stop offset="0.4596" stop-color="#D1B4E3"/>
<stop offset="0.5411" stop-color="#C8A6DD"/>
<stop offset="0.7113" stop-color="#B88ED4"/>
<stop offset="0.8687" stop-color="#AE7FCE"/>
<stop offset="1" stop-color="#AB7ACC"/>
</linearGradient>
<linearGradient id="paint28_linear" x1="244.103" y1="128.996" x2="250.325" y2="139.082" gradientUnits="userSpaceOnUse">
<stop offset="0.0101" stop-color="#C1A1D5"/>
<stop offset="0.0488" stop-color="#C8ABDA"/>
<stop offset="0.1149" stop-color="#DAC6E6"/>
<stop offset="0.1998" stop-color="#F7F2F9"/>
<stop offset="0.2222" stop-color="white"/>
<stop offset="0.2513" stop-color="#F9F5FB"/>
<stop offset="0.3001" stop-color="#E9DBF2"/>
<stop offset="0.3586" stop-color="#D1B4E3"/>
<stop offset="0.4264" stop-color="#B395D6"/>
<stop offset="0.4949" stop-color="#9C7DCB"/>
<stop offset="0.5583" stop-color="#8E6EC5"/>
<stop offset="0.6111" stop-color="#8969C3"/>
<stop offset="0.755" stop-color="#9471C6"/>
<stop offset="1" stop-color="#B086CC"/>
</linearGradient>
<radialGradient id="paint29_radial" cx="0" cy="0" r="1" gradientUnits="userSpaceOnUse" gradientTransform="translate(242.367 126.88) scale(12.8293)">
<stop offset="0.2222" stop-color="white"/>
<stop offset="0.5401" stop-color="#FEFDFE"/>
<stop offset="0.6651" stop-color="#F9F6FB"/>
<stop offset="0.7563" stop-color="#F1EAF5"/>
<stop offset="0.8309" stop-color="#E5D9ED"/>
<stop offset="0.8954" stop-color="#D6C2E3"/>
<stop offset="0.9521" stop-color="#C4A7D7"/>
<stop offset="1" stop-color="#B089C9"/>
</radialGradient>
<linearGradient id="paint30_linear" x1="244.667" y1="123.987" x2="242.244" y2="137.282" gradientUnits="userSpaceOnUse">
<stop offset="0.0101" stop-color="white"/>
<stop offset="0.1479" stop-color="#F9F5FB"/>
<stop offset="0.3792" stop-color="#E9DBF2"/>
<stop offset="0.6566" stop-color="#D1B4E3"/>
<stop offset="0.6664" stop-color="#CFB2E2"/>
<stop offset="0.7902" stop-color="#BE9AD6"/>
<stop offset="0.9046" stop-color="#B48BCF"/>
<stop offset="1" stop-color="#B086CC"/>
</linearGradient>
<linearGradient id="paint31_linear" x1="245.345" y1="122.177" x2="242.922" y2="135.471" gradientUnits="userSpaceOnUse">
<stop stop-color="#E2D1EE"/>
<stop offset="0.0558" stop-color="#DFCCEC"/>
<stop offset="0.2889" stop-color="#D5BAE5"/>
<stop offset="0.4596" stop-color="#D1B4E3"/>
<stop offset="0.5411" stop-color="#C8A6DD"/>
<stop offset="0.7113" stop-color="#B88ED4"/>
<stop offset="0.8687" stop-color="#AE7FCE"/>
<stop offset="1" stop-color="#AB7ACC"/>
</linearGradient>
<linearGradient id="paint32_linear" x1="224.544" y1="119.307" x2="249.326" y2="115.265" gradientUnits="userSpaceOnUse">
<stop offset="0.0354" stop-color="#9F19AB"/>
<stop offset="0.1727" stop-color="#A21CAC"/>
<stop offset="0.2906" stop-color="#AD24B0"/>
<stop offset="0.4013" stop-color="#BF31B7"/>
<stop offset="0.5076" stop-color="#D845C0"/>
<stop offset="0.6099" stop-color="#F75DCB"/>
<stop offset="0.6313" stop-color="#FF63CE"/>
<stop offset="0.8737" stop-color="#DC48C1"/>
</linearGradient>
<linearGradient id="paint33_linear" x1="69.2821" y1="145.767" x2="92.9893" y2="143.933" gradientUnits="userSpaceOnUse">
<stop offset="0.0354" stop-color="#9F19AB"/>
<stop offset="0.1727" stop-color="#A21CAC"/>
<stop offset="0.2906" stop-color="#AD24B0"/>
<stop offset="0.4013" stop-color="#BF31B7"/>
<stop offset="0.5076" stop-color="#D845C0"/>
<stop offset="0.6099" stop-color="#F75DCB"/>
<stop offset="0.6313" stop-color="#FF63CE"/>
<stop offset="0.8737" stop-color="#DC48C1"/>
</linearGradient>
<linearGradient id="paint34_linear" x1="278.675" y1="5.26789" x2="284.568" y2="5.26789" gradientUnits="userSpaceOnUse">
<stop stop-color="#25054D"/>
<stop offset="1" stop-color="#45108A"/>
</linearGradient>
<linearGradient id="paint35_linear" x1="43.6779" y1="143.725" x2="50.4236" y2="141.705" gradientUnits="userSpaceOnUse">
<stop stop-color="#B086CC"/>
<stop offset="0.3939" stop-color="#AD84CB"/>
<stop offset="0.6532" stop-color="#A47DC9"/>
<stop offset="0.873" stop-color="#9672C6"/>
<stop offset="1" stop-color="#8969C3"/>
</linearGradient>
<radialGradient id="paint36_radial" cx="0" cy="0" r="1" gradientUnits="userSpaceOnUse" gradientTransform="translate(198.326 51.6901) rotate(-31.214) scale(87.1564 11.0592)">
<stop stop-color="#972A74"/>
<stop offset="0.0413" stop-color="#8A266A"/>
<stop offset="0.1941" stop-color="#601B4A"/>
<stop offset="0.35" stop-color="#3D112F"/>
<stop offset="0.5074" stop-color="#220A1B"/>
<stop offset="0.6667" stop-color="#0F040C"/>
<stop offset="0.8293" stop-color="#040103"/>
<stop offset="1"/>
</radialGradient>
<radialGradient id="paint37_radial" cx="0" cy="0" r="1" gradientUnits="userSpaceOnUse" gradientTransform="translate(115.51 117.764) rotate(-24.7105) scale(49.3967 4.7665)">
<stop stop-color="#972A74"/>
<stop offset="0.0413" stop-color="#8A266A"/>
<stop offset="0.1941" stop-color="#601B4A"/>
<stop offset="0.35" stop-color="#3D112F"/>
<stop offset="0.5074" stop-color="#220A1B"/>
<stop offset="0.6667" stop-color="#0F040C"/>
<stop offset="0.8293" stop-color="#040103"/>
<stop offset="1"/>
</radialGradient>
<radialGradient id="paint38_radial" cx="0" cy="0" r="1" gradientUnits="userSpaceOnUse" gradientTransform="translate(257.317 40.7485) rotate(-33.3841) scale(49.3921 4.767)">
<stop stop-color="#972A74"/>
<stop offset="0.0413" stop-color="#8A266A"/>
<stop offset="0.1941" stop-color="#601B4A"/>
<stop offset="0.35" stop-color="#3D112F"/>
<stop offset="0.5074" stop-color="#220A1B"/>
<stop offset="0.6667" stop-color="#0F040C"/>
<stop offset="0.8293" stop-color="#040103"/>
<stop offset="1"/>
</radialGradient>
<radialGradient id="paint39_radial" cx="0" cy="0" r="1" gradientUnits="userSpaceOnUse" gradientTransform="translate(237.212 114.467) rotate(81.0721) scale(49.4022 4.76599)">
<stop stop-color="#972A74"/>
<stop offset="0.0413" stop-color="#8A266A"/>
<stop offset="0.1941" stop-color="#601B4A"/>
<stop offset="0.35" stop-color="#3D112F"/>
<stop offset="0.5074" stop-color="#220A1B"/>
<stop offset="0.6667" stop-color="#0F040C"/>
<stop offset="0.8293" stop-color="#040103"/>
<stop offset="1"/>
</radialGradient>
<radialGradient id="paint40_radial" cx="0" cy="0" r="1" gradientUnits="userSpaceOnUse" gradientTransform="translate(75.8704 153.254) scale(16.5256)">
<stop stop-color="white"/>
<stop offset="1"/>
</radialGradient>
</defs>
</svg>
